<svg width="26" height="20" viewBox="0 0 26 20" fill="none" xmlns="http://www.w3.org/2000/svg">
<path d="M12.9993 0.666748C3.66602 0.666748 0.166016 10.0001 0.166016 10.0001C0.166016 10.0001 3.66602 19.3334 12.9993 19.3334C22.3327 19.3334 25.8327 10.0001 25.8327 10.0001C25.8327 10.0001 22.3327 0.666748 12.9993 0.666748ZM12.9993 3.00008C19.1547 3.00008 22.268 7.97836 23.276 9.99552C22.2669 11.9987 19.1302 17.0001 12.9993 17.0001C6.84402 17.0001 3.73066 12.0218 2.72266 10.0046C3.73299 8.00147 6.86852 3.00008 12.9993 3.00008ZM12.9993 5.33342C10.4222 5.33342 8.33268 7.42291 8.33268 10.0001C8.33268 12.5772 10.4222 14.6667 12.9993 14.6667C15.5765 14.6667 17.666 12.5772 17.666 10.0001C17.666 7.42291 15.5765 5.33342 12.9993 5.33342ZM12.9993 7.66675C14.2885 7.66675 15.3327 8.71092 15.3327 10.0001C15.3327 11.2892 14.2885 12.3334 12.9993 12.3334C11.7102 12.3334 10.666 11.2892 10.666 10.0001C10.666 8.71092 11.7102 7.66675 12.9993 7.66675Z" fill="white"/>
</svg>
